<svg width="929.6699462890625px" height="168.9199981689453px" xmlns="http://www.w3.org/2000/svg" viewBox="-214.83497314453126 -9.459999084472656 929.6699462890625 168.9199981689453" style="background: none;" preserveAspectRatio="xMidYMid"><defs><linearGradient id="editing-shadow-gradient1" x1="0" x2="0" y1="0" y2="1"><stop offset="0" stop-color="#000000" stop-opacity="0"></stop><stop offset="0.2" stop-color="#000000" stop-opacity="0"></stop><stop offset="1" stop-color="#000000" stop-opacity="1"></stop></linearGradient><linearGradient id="editing-shadow-gradient2" x1="-0.254709580222772" x2="1.2547095802227721" y1="-0.15605902899050716" y2="1.1560590289905073"><stop offset="0" stop-color="#ffffff"></stop><stop offset="1" stop-color="#ffffff"></stop></linearGradient><filter id="editing-shadow" x="-100%" y="-100%" width="300%" height="300%"><feGaussianBlur stdDeviation="2"></feGaussianBlur><feComposite operator="in" in2="SourceGraphic"></feComposite><feGaussianBlur stdDeviation="1"></feGaussianBlur></filter></defs><g transform="translate(250,75)"><g transform="translate(-29.4, -1.2)"><g transform="skewX(45)"><g filter="url(#editing-shadow)"><g transform="translate(-279.2300073504448, 43.975624084472656)"><path d="M0.66-0.47L0.66-0.47L12.50-62.04L12.50-62.04Q23.59-62.98 30.74-62.98L30.74-62.98L30.74-62.98Q37.88-62.98 42.49-62.37L42.49-62.37L42.49-62.37Q47.09-61.76 50.20-60.16L50.20-60.16L50.20-60.16Q56.40-57.15 56.40-48.88L56.40-48.88L56.40-48.88Q56.40-44.09 52.26-40.04L52.26-40.04L52.26-40.04Q48.41-36.38 44.18-35.53L44.18-35.53L44.18-35.53Q48.69-34.78 51.89-31.40L51.89-31.40L51.89-31.40Q55.27-27.82 55.27-22.28L55.27-22.28L55.27-22.28Q55.27-11.56 47.28-5.31L47.28-5.31L47.28-5.31Q39.29 0.94 23.59 0.94L23.59 0.94L23.59 0.94Q12.78 0.94 0.66-0.47ZM26.23-30.27L21.53-5.92L21.53-5.92Q22.37-5.83 22.56-5.83L22.56-5.83L23.41-5.83L23.41-5.83Q31.11-5.83 34.40-10.90L34.40-10.90L34.40-10.90Q36.85-14.85 36.85-22.09L36.85-22.09L36.85-22.09Q36.85-25.94 34.36-28.01L34.36-28.01L34.36-28.01Q31.87-30.08 26.23-30.27L26.23-30.27ZM40.51-48.79L40.51-48.79L40.51-48.79Q40.51-56.59 32.99-56.59L32.99-56.59L32.15-56.59L32.15-56.59Q31.77-56.59 31.21-56.49L31.21-56.49L27.45-36.66L28.39-36.66L28.39-36.66Q40.51-36.94 40.51-48.79ZM81.97 1.88L81.97 1.88L81.97 1.88Q61.29 1.88 61.29-17.58L61.29-17.58L61.29-17.58Q61.29-31.40 68.90-40.33L68.90-40.33L68.90-40.33Q76.99-49.82 90.99-49.82L90.99-49.82L90.99-49.82Q101.14-49.82 106.31-45.12L106.31-45.12L106.31-45.12Q111.48-40.42 111.48-30.55L111.48-30.55L111.48-30.55Q111.48-15.51 103.40-6.77L103.40-6.77L103.40-6.77Q95.50 1.88 81.97 1.88ZM84.41-39.01L84.41-39.01L84.41-39.01Q83.28-36.47 82.39-32.66L82.39-32.66L82.39-32.66Q81.50-28.86 80.37-22.84L80.37-22.84L80.37-22.84Q79.24-16.83 79.24-9.40L79.24-9.40L79.24-9.40Q79.24-6.96 80.04-5.36L80.04-5.36L80.04-5.36Q80.84-3.76 83.00-3.76L83.00-3.76L83.00-3.76Q85.16-3.76 86.53-4.79L86.53-4.79L86.53-4.79Q87.89-5.83 88.92-8.27L88.92-8.27L88.92-8.27Q90.80-12.60 92.31-20.63L92.31-20.63L92.31-20.63Q93.81-28.67 93.95-32.15L93.95-32.15L93.95-32.15Q94.09-35.63 94.09-38.21L94.09-38.21L94.09-38.21Q94.09-40.80 93.34-42.49L93.34-42.49L93.34-42.49Q92.59-44.18 90.47-44.18L90.47-44.18L90.47-44.18Q88.36-44.18 86.95-42.86L86.95-42.86L86.95-42.86Q85.54-41.55 84.41-39.01ZM146.64-49.82L146.64-49.82L146.64-49.82Q150.02-49.82 152.66-49.07L152.66-49.07L152.66-49.07Q152.75-49.44 152.94-50.48L152.94-50.48L153.41-53.39L153.41-53.39Q153.78-55.27 154.35-58.37L154.35-58.37L155.85-65.80L174.56-67.68L164.12-13.16L164.12-13.16Q164.03-12.60 164.03-11.66L164.03-11.66L164.03-10.15L164.03-10.15Q164.03-8.08 165.06-6.53L165.06-6.53L165.06-6.53Q166.10-4.98 167.79-4.98L167.79-4.98L167.79-4.98Q165.91-0.56 160.18 1.32L160.18 1.32L160.18 1.32Q158.20 1.88 155.43 1.88L155.43 1.88L155.43 1.88Q152.66 1.88 150.12 0.42L150.12 0.42L150.12 0.42Q147.58-1.03 146.83-3.48L146.83-3.48L146.83-3.48Q145.32-1.03 142.32 0.42L142.32 0.42L142.32 0.42Q139.31 1.88 134.94 1.88L134.94 1.88L134.94 1.88Q130.57 1.88 126.95 0.75L126.95 0.75L126.95 0.75Q123.33-0.38 121.07-2.82L121.07-2.82L121.07-2.82Q116.94-7.61 116.94-18.52L116.94-18.52L116.94-18.52Q116.94-32.62 125.21-41.17L125.21-41.17L125.21-41.17Q133.48-49.82 146.64-49.82ZM145.98-44.18L145.98-44.18L145.98-44.18Q142.50-44.18 140.62-40.42L140.62-40.42L140.62-40.42Q138.74-36.66 136.82-27.35L136.82-27.35L136.82-27.35Q134.89-18.05 134.89-9.68L134.89-9.68L134.89-9.68Q134.89-3.95 138.27-3.95L138.27-3.95L138.27-3.95Q141.28-3.95 143.40-6.96L143.40-6.96L143.40-6.96Q145.51-9.96 146.36-14.95L146.36-14.95L151.43-42.49L151.43-42.49Q149.46-44.18 145.98-44.18ZM213.85-15.89L213.85-15.89L213.85-15.89Q216.20-14.29 216.20-10.76L216.20-10.76L216.20-10.76Q216.20-7.24 214.41-4.98L214.41-4.98L214.41-4.98Q212.63-2.73 209.71-1.22L209.71-1.22L209.71-1.22Q203.70 1.88 197.21 1.88L197.21 1.88L197.21 1.88Q190.73 1.88 186.92 0.47L186.92 0.47L186.92 0.47Q183.11-0.94 180.57-3.57L180.57-3.57L180.57-3.57Q175.59-8.55 175.59-17.67L175.59-17.67L175.59-17.67Q175.59-31.87 183.30-40.51L183.30-40.51L183.30-40.51Q191.57-49.82 205.95-49.82L205.95-49.82L205.95-49.82Q214.88-49.82 219.30-46.06L219.30-46.06L219.30-46.06Q222.59-43.24 222.59-38.63L222.59-38.63L222.59-38.63Q222.59-22.09 194.02-22.09L194.02-22.09L194.02-22.09Q193.64-19.65 193.64-17.58L193.64-17.58L193.64-17.58Q193.64-13.25 195.57-11.61L195.57-11.61L195.57-11.61Q197.49-9.96 201.07-9.96L201.07-9.96L201.07-9.96Q204.64-9.96 208.45-11.61L208.45-11.61L208.45-11.61Q212.25-13.25 213.85-15.89ZM194.67-26.13L194.67-26.13L194.67-26.13Q201.35-26.13 205.20-30.27L205.20-30.27L205.20-30.27Q209.06-34.22 209.06-40.51L209.06-40.51L209.06-40.51Q209.06-42.68 208.26-43.85L208.26-43.85L208.26-43.85Q207.46-45.03 205.86-45.03L205.86-45.03L205.86-45.03Q204.26-45.03 202.90-44.41L202.90-44.41L202.90-44.41Q201.54-43.80 200.13-41.74L200.13-41.74L200.13-41.74Q196.65-37.04 194.67-26.13ZM232.46-39.29L232.46-39.29L232.46-39.29Q235.66-43.80 240.50-46.81L240.50-46.81L240.50-46.81Q245.34-49.82 251.26-49.82L251.26-49.82L251.26-49.82Q257.18-49.82 260.00-47.94L260.00-47.94L278.43-49.82L272.04-13.72L272.04-13.72Q268.75 4.70 261.79 11.94L261.79 11.94L261.79 11.94Q255.12 18.80 242.14 18.80L242.14 18.80L242.14 18.80Q232.27 18.80 226.63 15.70L226.63 15.70L226.63 15.70Q220.99 12.60 220.99 7.43L220.99 7.43L220.99 7.43Q220.99 3.57 223.91 1.36L223.91 1.36L223.91 1.36Q226.82-0.85 231.33-0.85L231.33-0.85L231.33-0.85Q235.28-0.85 238.29 0.94L238.29 0.94L238.29 0.94Q240.08 1.88 240.92 3.20L240.92 3.20L240.92 3.20Q238.76 5.08 238.76 8.18L238.76 8.18L238.76 8.18Q238.76 12.22 242.52 12.22L242.52 12.22L242.52 12.22Q248.82 12.22 252.39-2.63L252.39-2.63L252.39-2.63Q253.42-6.67 254.27-10.72L254.27-10.72L254.27-10.72Q250.04-5.55 240.45-5.55L240.45-5.55L240.45-5.55Q233.78-5.55 229.92-8.74L229.92-8.74L229.92-8.74Q226.07-11.94 226.07-19.46L226.07-19.46L226.07-19.46Q226.07-24.16 227.67-29.47L227.67-29.47L227.67-29.47Q229.27-34.78 232.46-39.29ZM244.68-19.18L244.68-19.18L244.68-19.18Q244.68-12.78 247.97-12.78L247.97-12.78L247.97-12.78Q250.23-12.78 252.39-15.23L252.39-15.23L252.39-15.23Q254.08-17.20 254.74-20.12L254.74-20.12L259.53-44.27L259.53-44.27Q259.06-44.37 258.59-44.56L258.59-44.56L258.59-44.56Q257.65-44.93 256.43-44.93L256.43-44.93L256.43-44.93Q250.70-44.93 247.31-35.53L247.31-35.53L247.31-35.53Q244.68-28.20 244.68-19.18ZM286.18-2.82L286.18-2.82L286.18-2.82Q283.97-5.26 282.99-9.12L282.99-9.12L282.99-9.12Q282.00-12.97 282.00-19.27L282.00-19.27L282.00-19.27Q282.00-25.57 284.16-31.30L284.16-31.30L284.16-31.30Q286.32-37.04 290.27-41.17L290.27-41.17L290.27-41.17Q298.36-49.82 311.70-49.82L311.70-49.82L311.70-49.82Q316.50-49.82 319.98-48.22L319.98-48.22L336.05-49.82L329.09-13.16L329.09-13.16Q328.81-12.03 328.81-9.96L328.81-9.96L328.81-9.96Q328.81-7.90 330.08-6.58L330.08-6.58L330.08-6.58Q331.35-5.26 333.23-5.08L333.23-5.08L333.23-5.08Q332.29-1.88 328.86 0L328.86 0L328.86 0Q325.43 1.88 321.57 1.88L321.57 1.88L321.57 1.88Q317.72 1.88 315.14 0.42L315.14 0.42L315.14 0.42Q312.55-1.03 311.80-3.48L311.80-3.48L311.80-3.48Q310.29-1.13 307.10 0.38L307.10 0.38L307.10 0.38Q303.90 1.88 299.63 1.88L299.63 1.88L299.63 1.88Q295.35 1.88 291.87 0.75L291.87 0.75L291.87 0.75Q288.39-0.38 286.18-2.82ZM306.02-40.98L306.02-40.98L306.02-40.98Q304.94-39.29 304.00-36.42L304.00-36.42L304.00-36.42Q303.06-33.56 301.51-25.90L301.51-25.90L301.51-25.90Q299.95-18.24 299.95-12.78L299.95-12.78L299.95-12.78Q299.95-7.33 300.80-5.73L300.80-5.73L300.80-5.73Q301.65-4.14 303.15-4.14L303.15-4.14L303.15-4.14Q306.16-4.14 308.37-7.00L308.37-7.00L308.37-7.00Q310.58-9.87 311.42-14.95L311.42-14.95L316.40-42.49L316.40-42.49Q314.43-44.18 312.13-44.18L312.13-44.18L312.13-44.18Q309.82-44.18 308.46-43.43L308.46-43.43L308.46-43.43Q307.10-42.68 306.02-40.98ZM395.55-7.05L395.55-7.05L395.55-7.05Q395.55-13.63 398.18-26.79L398.18-26.79L384.27-26.79L379.10 0L359.46 0L371.39-62.04L391.23-62.04L385.78-34.31L399.69-34.31L404.86-62.04L424.69-62.04L424.69-62.04Q423.38-55.08 421.68-47.28L421.68-47.28L418.49-31.96L418.49-31.96Q414.92-14.10 414.92-6.30L414.92-6.30L414.92-6.30Q414.92-3.10 415.95-1.32L415.95-1.32L415.95-1.32Q411.25 1.88 405.75 1.88L405.75 1.88L405.75 1.88Q400.25 1.88 397.90-0.75L397.90-0.75L397.90-0.75Q395.55-3.38 395.55-7.05ZM449.51-5.17L449.51-5.17L449.51-5.17Q446.59 1.88 437.29 1.88L437.29 1.88L437.29 1.88Q432.49 1.88 429.49-1.41L429.49-1.41L429.49-1.41Q426.95-4.32 426.95-7.24L426.95-7.24L426.95-7.24Q426.95-14.85 430.43-29.70L430.43-29.70L433.90-47.94L452.99-49.82L447.25-20.12L447.25-20.12Q445.65-13.16 445.65-10.72L445.65-10.72L445.65-10.72Q445.65-5.36 449.51-5.17ZM435.60-61.01L435.60-61.01L435.60-61.01Q435.60-64.67 438.65-66.65L438.65-66.65L438.65-66.65Q441.71-68.62 446.12-68.62L446.12-68.62L446.12-68.62Q450.54-68.62 453.22-66.65L453.22-66.65L453.22-66.65Q455.90-64.67 455.90-61.01L455.90-61.01L455.90-61.01Q455.90-57.34 452.94-55.46L452.94-55.46L452.94-55.46Q449.98-53.58 445.56-53.58L445.56-53.58L445.56-53.58Q441.14-53.58 438.37-55.46L438.37-55.46L438.37-55.46Q435.60-57.34 435.60-61.01ZM491.62-46.34L491.62-46.34L491.62-46.34Q494.72-49.82 500.08-49.82L500.08-49.82L500.08-49.82Q503.37-49.82 505.91-48.03L505.91-48.03L505.91-48.03Q508.45-46.25 508.45-42.91L508.45-42.91L508.45-42.91Q508.45-39.57 507.41-36.00L507.41-36.00L507.41-36.00Q506.38-32.43 504.78-28.76L504.78-28.76L504.78-28.76Q501.58-21.62 497.17-15.70L497.17-15.70L497.17-15.70Q490.96-7.14 484.99-2.63L484.99-2.63L484.99-2.63Q479.02 1.88 472.54 1.88L472.54 1.88L472.54 1.88Q467.27 1.88 464.08 0.66L464.08 0.66L464.08 0.66Q463.51-19.08 462.81-26.13L462.81-26.13L462.81-26.13Q462.10-33.18 461.54-37.04L461.54-37.04L461.54-37.04Q460.60-44.56 457.78-46.34L457.78-46.34L457.78-46.34Q459.94-48.22 462.06-49.02L462.06-49.02L462.06-49.02Q464.17-49.82 468.54-49.82L468.54-49.82L468.54-49.82Q472.91-49.82 476.02-46.39L476.02-46.39L476.02-46.39Q479.12-42.96 479.73-36.90L479.73-36.90L479.73-36.90Q480.34-30.83 480.34-23.50L480.34-23.50L480.34-23.50Q480.34-16.17 479.78-7.33L479.78-7.33L479.78-7.33Q482.69-9.40 485.79-15.70L485.79-15.70L485.79-15.70Q490.02-24.44 491.53-34.97L491.53-34.97L491.53-34.97Q492.00-38.16 492.00-41.55L492.00-41.55L492.00-41.55Q492.00-44.93 491.62-46.34ZM549.05-15.89L549.05-15.89L549.05-15.89Q551.40-14.29 551.40-10.76L551.40-10.76L551.40-10.76Q551.40-7.24 549.62-4.98L549.62-4.98L549.62-4.98Q547.83-2.73 544.92-1.22L544.92-1.22L544.92-1.22Q538.90 1.88 532.42 1.88L532.42 1.88L532.42 1.88Q525.93 1.88 522.12 0.47L522.12 0.47L522.12 0.47Q518.32-0.94 515.78-3.57L515.78-3.57L515.78-3.57Q510.80-8.55 510.80-17.67L510.80-17.67L510.80-17.67Q510.80-31.87 518.50-40.51L518.50-40.51L518.50-40.51Q526.78-49.82 541.16-49.82L541.16-49.82L541.16-49.82Q550.09-49.82 554.51-46.06L554.51-46.06L554.51-46.06Q557.80-43.24 557.80-38.63L557.80-38.63L557.80-38.63Q557.80-22.09 529.22-22.09L529.22-22.09L529.22-22.09Q528.84-19.65 528.84-17.58L528.84-17.58L528.84-17.58Q528.84-13.25 530.77-11.61L530.77-11.61L530.77-11.61Q532.70-9.96 536.27-9.96L536.27-9.96L536.27-9.96Q539.84-9.96 543.65-11.61L543.65-11.61L543.65-11.61Q547.46-13.25 549.05-15.89ZM529.88-26.13L529.88-26.13L529.88-26.13Q536.55-26.13 540.41-30.27L540.41-30.27L540.41-30.27Q544.26-34.22 544.26-40.51L544.26-40.51L544.26-40.51Q544.26-42.68 543.46-43.85L543.46-43.85L543.46-43.85Q542.66-45.03 541.06-45.03L541.06-45.03L541.06-45.03Q539.47-45.03 538.10-44.41L538.10-44.41L538.10-44.41Q536.74-43.80 535.33-41.74L535.33-41.74L535.33-41.74Q531.85-37.04 529.88-26.13Z" fill="url(#editing-shadow-gradient1)"></path></g></g></g></g><g><g transform="translate(-279.2221948504448, 43.709999084472656)"><path d="M0.66-0.47L0.66-0.47L12.50-62.04L12.50-62.04Q23.59-62.98 30.74-62.98L30.74-62.98L30.74-62.98Q37.88-62.98 42.49-62.37L42.49-62.37L42.49-62.37Q47.09-61.76 50.20-60.16L50.20-60.16L50.20-60.16Q56.40-57.15 56.40-48.88L56.40-48.88L56.40-48.88Q56.40-44.09 52.26-40.04L52.26-40.04L52.26-40.04Q48.41-36.38 44.18-35.53L44.18-35.53L44.18-35.53Q48.69-34.78 51.89-31.40L51.89-31.40L51.89-31.40Q55.27-27.82 55.27-22.28L55.27-22.28L55.27-22.28Q55.27-11.56 47.28-5.31L47.28-5.31L47.28-5.31Q39.29 0.94 23.59 0.94L23.59 0.94L23.59 0.94Q12.78 0.94 0.66-0.47ZM26.23-30.27L21.53-5.92L21.53-5.92Q22.37-5.83 22.56-5.83L22.56-5.83L23.41-5.83L23.41-5.83Q31.11-5.83 34.40-10.90L34.40-10.90L34.40-10.90Q36.85-14.85 36.85-22.09L36.85-22.09L36.85-22.09Q36.85-25.94 34.36-28.01L34.36-28.01L34.36-28.01Q31.87-30.08 26.23-30.27L26.23-30.27ZM40.51-48.79L40.51-48.79L40.51-48.79Q40.51-56.59 32.99-56.59L32.99-56.59L32.15-56.59L32.15-56.59Q31.77-56.59 31.21-56.49L31.21-56.49L27.45-36.66L28.39-36.66L28.39-36.66Q40.51-36.94 40.51-48.79ZM81.97 1.88L81.97 1.88L81.97 1.88Q61.29 1.88 61.29-17.58L61.29-17.58L61.29-17.58Q61.29-31.40 68.90-40.33L68.90-40.33L68.90-40.33Q76.99-49.82 90.99-49.82L90.99-49.82L90.99-49.82Q101.14-49.82 106.31-45.12L106.31-45.12L106.31-45.12Q111.48-40.42 111.48-30.55L111.48-30.55L111.48-30.55Q111.48-15.51 103.40-6.77L103.40-6.77L103.40-6.77Q95.50 1.88 81.97 1.88ZM84.41-39.01L84.41-39.01L84.41-39.01Q83.28-36.47 82.39-32.66L82.39-32.66L82.39-32.66Q81.50-28.86 80.37-22.84L80.37-22.84L80.37-22.84Q79.24-16.83 79.24-9.40L79.24-9.40L79.24-9.40Q79.24-6.96 80.04-5.36L80.04-5.36L80.04-5.36Q80.84-3.76 83.00-3.76L83.00-3.76L83.00-3.76Q85.16-3.76 86.53-4.79L86.53-4.79L86.53-4.79Q87.89-5.83 88.92-8.27L88.92-8.27L88.92-8.27Q90.80-12.60 92.31-20.63L92.31-20.63L92.31-20.63Q93.81-28.67 93.95-32.15L93.95-32.15L93.95-32.15Q94.09-35.63 94.09-38.21L94.09-38.21L94.09-38.21Q94.09-40.80 93.34-42.49L93.34-42.49L93.34-42.49Q92.59-44.18 90.47-44.18L90.47-44.18L90.47-44.18Q88.36-44.18 86.95-42.86L86.95-42.86L86.95-42.86Q85.54-41.55 84.41-39.01ZM146.64-49.82L146.64-49.82L146.64-49.82Q150.02-49.82 152.66-49.07L152.66-49.07L152.66-49.07Q152.75-49.44 152.94-50.48L152.94-50.48L153.41-53.39L153.41-53.39Q153.78-55.27 154.35-58.37L154.35-58.37L155.85-65.80L174.56-67.68L164.12-13.16L164.12-13.16Q164.03-12.60 164.03-11.66L164.03-11.66L164.03-10.15L164.03-10.15Q164.03-8.08 165.06-6.53L165.06-6.53L165.06-6.53Q166.10-4.98 167.79-4.98L167.79-4.98L167.79-4.98Q165.91-0.56 160.18 1.32L160.18 1.32L160.18 1.32Q158.20 1.88 155.43 1.88L155.43 1.88L155.43 1.88Q152.66 1.88 150.12 0.42L150.12 0.42L150.12 0.42Q147.58-1.03 146.83-3.48L146.83-3.48L146.83-3.48Q145.32-1.03 142.32 0.42L142.32 0.42L142.32 0.42Q139.31 1.88 134.94 1.88L134.94 1.88L134.94 1.88Q130.57 1.88 126.95 0.75L126.95 0.75L126.95 0.75Q123.33-0.38 121.07-2.82L121.07-2.82L121.07-2.82Q116.94-7.61 116.94-18.52L116.94-18.52L116.94-18.52Q116.94-32.62 125.21-41.17L125.21-41.17L125.21-41.17Q133.48-49.82 146.64-49.82ZM145.98-44.18L145.98-44.18L145.98-44.18Q142.50-44.18 140.62-40.42L140.62-40.42L140.62-40.42Q138.74-36.66 136.82-27.35L136.82-27.35L136.82-27.35Q134.89-18.05 134.89-9.68L134.89-9.68L134.89-9.68Q134.89-3.95 138.27-3.95L138.27-3.95L138.27-3.95Q141.28-3.95 143.40-6.96L143.40-6.96L143.40-6.96Q145.51-9.96 146.36-14.95L146.36-14.95L151.43-42.49L151.43-42.49Q149.46-44.18 145.98-44.18ZM213.85-15.89L213.85-15.89L213.85-15.89Q216.20-14.29 216.20-10.76L216.20-10.76L216.20-10.76Q216.20-7.24 214.41-4.98L214.41-4.98L214.41-4.98Q212.63-2.73 209.71-1.22L209.71-1.22L209.71-1.22Q203.70 1.88 197.21 1.88L197.21 1.88L197.21 1.88Q190.73 1.88 186.92 0.47L186.92 0.47L186.92 0.47Q183.11-0.94 180.57-3.57L180.57-3.57L180.57-3.57Q175.59-8.55 175.59-17.67L175.59-17.67L175.59-17.67Q175.59-31.87 183.30-40.51L183.30-40.51L183.30-40.51Q191.57-49.82 205.95-49.82L205.95-49.82L205.95-49.82Q214.88-49.82 219.30-46.06L219.30-46.06L219.30-46.06Q222.59-43.24 222.59-38.63L222.59-38.63L222.59-38.63Q222.59-22.09 194.02-22.09L194.02-22.09L194.02-22.09Q193.64-19.65 193.64-17.58L193.64-17.58L193.64-17.58Q193.64-13.25 195.57-11.61L195.57-11.61L195.57-11.61Q197.49-9.96 201.07-9.96L201.07-9.96L201.07-9.96Q204.64-9.96 208.45-11.61L208.45-11.61L208.45-11.61Q212.25-13.25 213.85-15.89ZM194.67-26.13L194.67-26.13L194.67-26.13Q201.35-26.13 205.20-30.27L205.20-30.27L205.20-30.27Q209.06-34.22 209.06-40.51L209.06-40.51L209.06-40.51Q209.06-42.68 208.26-43.85L208.26-43.85L208.26-43.85Q207.46-45.03 205.86-45.03L205.86-45.03L205.86-45.03Q204.26-45.03 202.90-44.41L202.90-44.41L202.90-44.41Q201.54-43.80 200.13-41.74L200.13-41.74L200.13-41.74Q196.65-37.04 194.67-26.13ZM232.46-39.29L232.46-39.29L232.46-39.29Q235.66-43.80 240.50-46.81L240.50-46.81L240.50-46.81Q245.34-49.82 251.26-49.82L251.26-49.82L251.26-49.82Q257.18-49.82 260.00-47.94L260.00-47.94L278.43-49.82L272.04-13.72L272.04-13.72Q268.75 4.70 261.79 11.94L261.79 11.94L261.79 11.94Q255.12 18.80 242.14 18.80L242.14 18.80L242.14 18.80Q232.27 18.80 226.63 15.70L226.63 15.70L226.63 15.70Q220.99 12.60 220.99 7.43L220.99 7.43L220.99 7.43Q220.99 3.57 223.91 1.36L223.91 1.36L223.91 1.36Q226.82-0.85 231.33-0.85L231.33-0.85L231.33-0.85Q235.28-0.85 238.29 0.94L238.29 0.94L238.29 0.94Q240.08 1.88 240.92 3.20L240.92 3.20L240.92 3.20Q238.76 5.08 238.76 8.18L238.76 8.18L238.76 8.18Q238.76 12.22 242.52 12.22L242.52 12.22L242.52 12.22Q248.82 12.22 252.39-2.63L252.39-2.63L252.39-2.63Q253.42-6.67 254.27-10.72L254.27-10.72L254.27-10.72Q250.04-5.55 240.45-5.55L240.45-5.55L240.45-5.55Q233.78-5.55 229.92-8.74L229.92-8.74L229.92-8.74Q226.07-11.94 226.07-19.46L226.07-19.46L226.07-19.46Q226.07-24.16 227.67-29.47L227.67-29.47L227.67-29.47Q229.27-34.78 232.46-39.29ZM244.68-19.18L244.68-19.18L244.68-19.18Q244.68-12.78 247.97-12.78L247.97-12.78L247.97-12.78Q250.23-12.78 252.39-15.23L252.39-15.23L252.39-15.23Q254.08-17.20 254.74-20.12L254.74-20.12L259.53-44.27L259.53-44.27Q259.06-44.37 258.59-44.56L258.59-44.56L258.59-44.56Q257.65-44.93 256.43-44.93L256.43-44.93L256.43-44.93Q250.70-44.93 247.31-35.53L247.31-35.53L247.31-35.53Q244.68-28.20 244.68-19.18ZM286.18-2.82L286.18-2.82L286.18-2.82Q283.97-5.26 282.99-9.12L282.99-9.12L282.99-9.12Q282.00-12.97 282.00-19.27L282.00-19.27L282.00-19.27Q282.00-25.57 284.16-31.30L284.16-31.30L284.16-31.30Q286.32-37.04 290.27-41.17L290.27-41.17L290.27-41.17Q298.36-49.82 311.70-49.82L311.70-49.82L311.70-49.82Q316.50-49.82 319.98-48.22L319.98-48.22L336.05-49.82L329.09-13.16L329.09-13.16Q328.81-12.03 328.81-9.96L328.81-9.96L328.81-9.96Q328.81-7.90 330.08-6.58L330.08-6.58L330.08-6.58Q331.35-5.26 333.23-5.08L333.23-5.08L333.23-5.08Q332.29-1.88 328.86 0L328.86 0L328.86 0Q325.43 1.88 321.57 1.88L321.57 1.88L321.57 1.88Q317.72 1.88 315.14 0.42L315.14 0.42L315.14 0.42Q312.55-1.03 311.80-3.48L311.80-3.48L311.80-3.48Q310.29-1.13 307.10 0.38L307.10 0.38L307.10 0.38Q303.90 1.88 299.63 1.88L299.63 1.88L299.63 1.88Q295.35 1.88 291.87 0.75L291.87 0.75L291.87 0.75Q288.39-0.38 286.18-2.82ZM306.02-40.98L306.02-40.98L306.02-40.98Q304.94-39.29 304.00-36.42L304.00-36.42L304.00-36.42Q303.06-33.56 301.51-25.90L301.51-25.90L301.51-25.90Q299.95-18.24 299.95-12.78L299.95-12.78L299.95-12.78Q299.95-7.33 300.80-5.73L300.80-5.73L300.80-5.73Q301.65-4.14 303.15-4.14L303.15-4.14L303.15-4.14Q306.16-4.14 308.37-7.00L308.37-7.00L308.37-7.00Q310.58-9.87 311.42-14.95L311.42-14.95L316.40-42.49L316.40-42.49Q314.43-44.18 312.13-44.18L312.13-44.18L312.13-44.18Q309.82-44.18 308.46-43.43L308.46-43.43L308.46-43.43Q307.10-42.68 306.02-40.98ZM395.55-7.05L395.55-7.05L395.55-7.05Q395.55-13.63 398.18-26.79L398.18-26.79L384.27-26.79L379.10 0L359.46 0L371.39-62.04L391.23-62.04L385.78-34.31L399.69-34.31L404.86-62.04L424.69-62.04L424.69-62.04Q423.38-55.08 421.68-47.28L421.68-47.28L418.49-31.96L418.49-31.96Q414.92-14.10 414.92-6.30L414.92-6.30L414.92-6.30Q414.92-3.10 415.95-1.32L415.95-1.32L415.95-1.32Q411.25 1.88 405.75 1.88L405.75 1.88L405.75 1.88Q400.25 1.88 397.90-0.75L397.90-0.75L397.90-0.75Q395.55-3.38 395.55-7.05ZM449.51-5.17L449.51-5.17L449.51-5.17Q446.59 1.88 437.29 1.88L437.29 1.88L437.29 1.88Q432.49 1.88 429.49-1.41L429.49-1.41L429.49-1.41Q426.95-4.32 426.95-7.24L426.95-7.24L426.95-7.24Q426.95-14.85 430.43-29.70L430.43-29.70L433.90-47.94L452.99-49.82L447.25-20.12L447.25-20.12Q445.65-13.16 445.65-10.72L445.65-10.72L445.65-10.72Q445.65-5.36 449.51-5.17ZM435.60-61.01L435.60-61.01L435.60-61.01Q435.60-64.67 438.65-66.65L438.65-66.65L438.65-66.65Q441.71-68.62 446.12-68.62L446.12-68.62L446.12-68.62Q450.54-68.62 453.22-66.65L453.22-66.65L453.22-66.65Q455.90-64.67 455.90-61.01L455.90-61.01L455.90-61.01Q455.90-57.34 452.94-55.46L452.94-55.46L452.94-55.46Q449.98-53.58 445.56-53.58L445.56-53.58L445.56-53.58Q441.14-53.58 438.37-55.46L438.37-55.46L438.37-55.46Q435.60-57.34 435.60-61.01ZM491.62-46.34L491.62-46.34L491.62-46.34Q494.72-49.82 500.08-49.82L500.08-49.82L500.08-49.82Q503.37-49.82 505.91-48.03L505.91-48.03L505.91-48.03Q508.45-46.25 508.45-42.91L508.45-42.91L508.45-42.91Q508.45-39.57 507.41-36.00L507.41-36.00L507.41-36.00Q506.38-32.43 504.78-28.76L504.78-28.76L504.78-28.76Q501.58-21.62 497.17-15.70L497.17-15.70L497.17-15.70Q490.96-7.14 484.99-2.63L484.99-2.63L484.99-2.63Q479.02 1.88 472.54 1.88L472.54 1.88L472.54 1.88Q467.27 1.88 464.08 0.66L464.08 0.66L464.08 0.66Q463.51-19.08 462.81-26.13L462.81-26.13L462.81-26.13Q462.10-33.18 461.54-37.04L461.54-37.04L461.54-37.04Q460.60-44.56 457.78-46.34L457.78-46.34L457.78-46.34Q459.94-48.22 462.06-49.02L462.06-49.02L462.06-49.02Q464.17-49.82 468.54-49.82L468.54-49.82L468.54-49.82Q472.91-49.82 476.02-46.39L476.02-46.39L476.02-46.39Q479.12-42.96 479.73-36.90L479.73-36.90L479.73-36.90Q480.34-30.83 480.34-23.50L480.34-23.50L480.34-23.50Q480.34-16.17 479.78-7.33L479.78-7.33L479.78-7.33Q482.69-9.40 485.79-15.70L485.79-15.70L485.79-15.70Q490.02-24.44 491.53-34.97L491.53-34.97L491.53-34.97Q492.00-38.16 492.00-41.55L492.00-41.55L492.00-41.55Q492.00-44.93 491.62-46.34ZM549.05-15.89L549.05-15.89L549.05-15.89Q551.40-14.29 551.40-10.76L551.40-10.76L551.40-10.76Q551.40-7.24 549.62-4.98L549.62-4.98L549.62-4.98Q547.83-2.73 544.92-1.22L544.92-1.22L544.92-1.22Q538.90 1.88 532.42 1.88L532.42 1.88L532.42 1.88Q525.93 1.88 522.12 0.47L522.12 0.47L522.12 0.47Q518.32-0.94 515.78-3.57L515.78-3.57L515.78-3.57Q510.80-8.55 510.80-17.67L510.80-17.67L510.80-17.67Q510.80-31.87 518.50-40.51L518.50-40.51L518.50-40.51Q526.78-49.82 541.16-49.82L541.16-49.82L541.16-49.82Q550.09-49.82 554.51-46.06L554.51-46.06L554.51-46.06Q557.80-43.24 557.80-38.63L557.80-38.63L557.80-38.63Q557.80-22.09 529.22-22.09L529.22-22.09L529.22-22.09Q528.84-19.65 528.84-17.58L528.84-17.58L528.84-17.58Q528.84-13.25 530.77-11.61L530.77-11.61L530.77-11.61Q532.70-9.96 536.27-9.96L536.27-9.96L536.27-9.96Q539.84-9.96 543.65-11.61L543.65-11.61L543.65-11.61Q547.46-13.25 549.05-15.89ZM529.88-26.13L529.88-26.13L529.88-26.13Q536.55-26.13 540.41-30.27L540.41-30.27L540.41-30.27Q544.26-34.22 544.26-40.51L544.26-40.51L544.26-40.51Q544.26-42.68 543.46-43.85L543.46-43.85L543.46-43.85Q542.66-45.03 541.06-45.03L541.06-45.03L541.06-45.03Q539.47-45.03 538.10-44.41L538.10-44.41L538.10-44.41Q536.74-43.80 535.33-41.74L535.33-41.74L535.33-41.74Q531.85-37.04 529.88-26.13Z" fill="url(#editing-shadow-gradient2)"></path></g></g></g><style>text {
  font-size: 64px;
  font-family: Arial Black;
  dominant-baseline: central;
  text-anchor: middle;
}</style></svg>